<?xml version="1.0" standalone="no"?>
<!DOCTYPE svg PUBLIC "-//W3C//DTD SVG 20010904//EN"
 "http://www.w3.org/TR/2001/REC-SVG-20010904/DTD/svg10.dtd">
<svg version="1.0" xmlns="http://www.w3.org/2000/svg"
 width="1024.000000pt" height="1024.000000pt" viewBox="0 0 1024.000000 1024.000000"
 preserveAspectRatio="xMidYMid meet">

<g transform="translate(0.000000,1024.000000) scale(0.100000,-0.100000)"
fill="#000000" stroke="none">
<path d="M4690 7415 l0 -165 1585 2 1585 3 0 -2297 0 -2298 158 0 159 0 6 887
c4 487 7 1594 7 2460 l0 1573 -1750 0 -1750 0 0 -165z"/>
<path d="M2092 5970 l3 -841 348 -2 347 -2 0 133 0 132 -205 0 -205 0 0 225 0
225 170 0 170 0 0 130 0 130 -170 0 -170 0 0 220 0 220 200 0 200 0 0 135 0
135 -345 0 -345 0 2 -840z"/>
<path d="M2990 5968 l0 -843 135 0 135 0 2 519 3 518 94 -258 c51 -143 136
-376 188 -519 l95 -260 139 0 139 0 0 843 0 842 -140 0 -140 0 -1 -502 0 -503
-59 170 c-32 94 -109 320 -171 503 l-114 332 -152 0 -153 0 0 -842z"/>
<path d="M4090 6675 l0 -135 155 0 155 0 0 -707 0 -708 145 0 145 0 0 708 0
707 153 0 152 0 0 135 0 135 -452 0 -453 0 0 -135z"/>
<path d="M5170 5968 l0 -843 140 0 140 0 0 313 0 312 64 0 63 0 109 -310 109
-310 153 -4 c83 -2 152 0 152 4 0 4 -61 154 -135 334 -74 181 -135 331 -135
335 0 3 20 17 45 30 64 34 128 107 155 177 20 51 24 82 28 234 5 201 -4 267
-49 358 -34 70 -96 124 -190 166 -88 38 -155 46 -411 46 l-238 0 0 -842z m525
556 c69 -36 77 -62 79 -242 1 -140 -1 -161 -20 -196 -36 -70 -60 -81 -190 -84
l-114 -4 0 277 0 277 103 -4 c80 -2 111 -8 142 -24z"/>
<path d="M6272 5970 l3 -841 343 -2 342 -2 0 133 0 132 -200 0 -200 0 0 225 0
225 170 0 170 0 0 130 0 130 -170 0 -170 0 0 220 0 220 195 0 195 0 0 135 0
135 -340 0 -340 0 2 -840z"/>
<path d="M5250 4824 c-146 -39 -254 -153 -295 -312 -14 -55 -15 -125 -13 -545
3 -472 4 -483 26 -542 51 -135 141 -226 263 -265 57 -19 86 -22 177 -19 102 4
113 7 185 42 86 42 138 95 180 180 55 113 57 133 57 619 0 292 -4 465 -11 500
-27 126 -108 246 -204 303 -92 53 -249 70 -365 39z m240 -289 c61 -58 61 -64
58 -565 -3 -434 -4 -457 -23 -489 -34 -57 -67 -76 -140 -76 -76 0 -109 19
-142 85 -23 44 -23 47 -23 495 0 448 0 451 23 495 12 25 38 55 57 68 30 20 45
23 97 20 52 -3 68 -9 93 -33z"/>
<path d="M6299 4827 c-103 -29 -199 -112 -245 -212 -51 -110 -53 -269 -4 -398
40 -105 79 -144 400 -389 52 -40 108 -93 125 -118 27 -41 30 -52 30 -125 0
-92 -23 -143 -78 -172 -73 -38 -194 -7 -236 60 -11 18 -25 65 -32 105 -9 55
-16 72 -28 72 -25 -1 -241 -37 -246 -42 -2 -2 0 -35 6 -73 37 -266 185 -395
453 -395 158 0 253 35 329 119 48 53 74 106 98 198 32 128 21 248 -34 360 -45
94 -83 132 -271 273 -95 70 -192 150 -218 178 -52 58 -74 121 -63 179 17 91
65 133 155 133 96 0 142 -45 158 -152 l8 -53 39 3 c49 3 218 31 223 37 10 9
-29 158 -55 211 -38 80 -117 156 -190 185 -72 27 -252 36 -324 16z"/>
<path d="M3840 3986 l0 -836 223 0 c320 0 413 25 530 141 61 62 96 125 122
224 22 85 22 872 0 958 -44 169 -149 278 -311 323 -44 12 -123 17 -311 21
l-253 6 0 -837z m527 542 c79 -52 78 -45 78 -549 l0 -445 -27 -41 c-37 -56
-84 -76 -195 -81 l-93 -4 0 577 0 577 99 -4 c86 -3 103 -7 138 -30z"/>
</g>
</svg>
